<svg width="20" height="19" viewBox="0 0 20 19" fill="none" xmlns="http://www.w3.org/2000/svg">
<path d="M7.60791 6.96899L2.4541 7.7619L7.01322 11.429L5.82388 16.9793L9.98658 13.8077L15.1404 16.9793L13.7528 11.429L17.6182 7.7619L12.3653 6.96899L9.98658 1.81519L7.60791 6.96899Z" fill="#FFA000"/>
<path d="M10.0659 13.1764L6.42764 15.3729L7.38559 11.2314L4.17307 8.44468L8.41128 8.08666L10.0659 4.17744L11.7206 8.08666L15.9588 8.44468L12.7462 11.2314L13.7042 15.3729M19.7422 7.22547L12.785 6.63522L10.0659 0.219849L7.34689 6.63522L0.389648 7.22547L5.66322 11.8023L4.08598 18.6048L10.0659 14.9955L16.0459 18.6048L14.4589 11.8023L19.7422 7.22547Z" fill="#455A64"/>
</svg>
